<?xml version="1.0" encoding="UTF-8"?>
<!DOCTYPE svg PUBLIC "-//W3C//DTD SVG 1.0//EN" "http://www.w3.org/TR/2001/REC-SVG-20010904/DTD/svg10.dtd">
<!-- Creator: CorelDRAW -->
<svg xmlns="http://www.w3.org/2000/svg" xml:space="preserve" width="21cm" height="29.7cm" version="1.0" style="shape-rendering:geometricPrecision; text-rendering:geometricPrecision; image-rendering:optimizeQuality; fill-rule:evenodd; clip-rule:evenodd"
viewBox="0 0 21000 29700"
 xmlns:xlink="http://www.w3.org/1999/xlink"
 xmlns:xodm="http://www.corel.com/coreldraw/odm/2003">
 <defs>
  <style type="text/css">
   <![CDATA[
    .fil0 {fill:#FEFEFE;fill-rule:nonzero}
   ]]>
  </style>
 </defs>
 <g id="Layer_x0020_1">
  <metadata id="CorelCorpID_0Corel-Layer"/>
  <path class="fil0" d="M10988.17 8678.5c318.1,285.24 218.75,196.15 432.6,387.95l-69.81 -132.6c249.49,57.46 487.86,175.05 691.69,352.83 -574.65,501.1 -1423.91,524.19 -2023.78,69.27 55.55,-160.85 -64.12,-328.6 -234.02,-328.6 -136.71,0 -247.58,110.88 -247.58,247.59 0,170.58 168.88,290.24 329.89,233.56 708.93,557.24 1745.44,515.24 2407.08,-146.39l75.43 -75.43c-386.69,-386.74 -792.2,-608.18 -1361.5,-608.18zm-1072.32 608.18c-14.12,159.15 -248.29,158.4 -261.93,0 -7.41,-75.67 52.98,-143.19 130.93,-143.19 77.99,0 138.4,67.67 131,143.19z"/>
  <path class="fil0" d="M11766.44 9274.94c0,-102.78 -155.7,-103.03 -155.7,0 0,103.03 155.7,103.03 155.7,0z"/>
  <path class="fil0" d="M12280.64 8522.74c-709.05,-557.13 -1745.46,-515.17 -2407.1,146.46l-75.43 75.45c386.08,386.08 791.05,608.17 1361.51,608.17 -316.07,-283.44 -221.07,-198.25 -432.6,-387.95l69.8 132.59c-249.5,-57.47 -487.84,-175.04 -691.7,-352.81 574.65,-501.12 1423.93,-524.21 2023.8,-69.27 -55.52,160.81 64.01,328.5 234.01,328.5 136.73,0 247.51,-110.8 247.51,-247.57 0,-170.91 -169.2,-290.11 -329.8,-233.57zm82.29 365.09c-78.86,0 -138.43,-68.79 -130.98,-143.18 14.31,-163.9 262.43,-157.51 262.43,11.66 0,72.61 -58.83,131.52 -131.45,131.52z"/>
  <path class="fil0" d="M10381.37 8756.31c0,103.07 155.6,103.02 155.6,0 0,-102.84 -155.6,-103.04 -155.6,0z"/>
 </g>
</svg>
